<svg xmlns="http://www.w3.org/2000/svg" version="1.1" xmlns:xlink="http://www.w3.org/1999/xlink" xmlns:svgjs="http://svgjs.dev/svgjs" width="1000" height="999" viewBox="0 0 1000 999"><g transform="matrix(1,0,0,1,-0.215743440233382,-0.21552769679306039)"><svg viewBox="0 0 343 343" data-background-color="#ffffff" preserveAspectRatio="xMidYMid meet" height="999" width="1000" xmlns="http://www.w3.org/2000/svg" xmlns:xlink="http://www.w3.org/1999/xlink"><g id="tight-bounds" transform="matrix(1,0,0,1,0.0740000000000407,0.07400000000001228)"><svg viewBox="0 0 342.85155851775386 342.85155851775386" height="342.85155851775386" width="342.85155851775386"><g><svg></svg></g><g><svg viewBox="0 0 342.85155851775386 342.85155851775386" height="342.85155851775386" width="342.85155851775386"><g><path d="M0 171.426c0-94.676 76.75-171.426 171.426-171.426 94.676 0 171.426 76.75 171.426 171.426 0 94.676-76.75 171.426-171.426 171.426-94.676 0-171.426-76.75-171.426-171.426zM171.426 340.607c93.436 0 169.181-75.745 169.181-169.181 0-93.436-75.745-169.181-169.181-169.182-93.436 0-169.181 75.745-169.182 169.182 0 93.436 75.745 169.181 169.182 169.181z" data-fill-palette-color="tertiary" fill="#f0cf90" stroke="transparent"></path><ellipse rx="164.56874808852186" ry="164.56874808852186" cx="171.42577925887693" cy="171.42577925887693" fill="#f0cf90" stroke="transparent" stroke-width="0" fill-opacity="1" data-fill-palette-color="tertiary"></ellipse></g><g transform="matrix(1,0,0,1,64.84655864529837,138.84643521367803)"><svg viewBox="0 0 213.1584412271571 65.1586880903978" height="65.1586880903978" width="213.1584412271571"><g><svg viewBox="0 0 213.1584412271571 65.1586880903978" height="65.1586880903978" width="213.1584412271571"><g><svg viewBox="0 0 213.1584412271571 65.1586880903978" height="65.1586880903978" width="213.1584412271571"><g transform="matrix(1,0,0,1,0,40.27068327678742)"><svg viewBox="0 0 213.1584412271571 24.888004813610376" height="24.888004813610376" width="213.1584412271571"><g><svg viewBox="0 0 213.1584412271571 24.888004813610376" height="24.888004813610376" width="213.1584412271571"><g><svg viewBox="0 0 213.1584412271571 24.888004813610376" height="24.888004813610376" width="213.1584412271571"><g transform="matrix(1,0,0,1,0,0)"><svg width="213.1584412271571" viewBox="1.5 -33.25 291.1700134277344 34" height="24.888004813610376" data-palette-color="#ffffff"><path d="M1.5-32.5L18-32.5 18-29.5 11.5-29.5 11.5 0 8 0 8-29.5 1.5-29.5 1.5-32.5ZM28-32.5L28 0 24.5 0 24.5-32.5 28-32.5ZM38 0L38-32.5 45.55-32.5Q49.45-32.5 51.47-30.65 53.5-28.8 53.5-25.5L53.5-25.5 53.5-22.5Q53.5-18.25 49.95-17.05L49.95-17.05Q54-15.95 54-11.5L54-11.5 54-7Q54-3.65 52-1.83 50 0 46.05 0L46.05 0 38 0ZM50.5-7L50.5-7 50.5-11.5Q50.5-13.4 49.35-14.58 48.2-15.75 46.05-15.75L46.05-15.75 41.5-15.75 41.5-3 46.05-3Q50.5-3 50.5-7ZM50-22.5L50-22.5 50-25.5Q50-27.4 48.85-28.45 47.7-29.5 45.55-29.5L45.55-29.5 41.5-29.5 41.5-18.25 45.55-18.25Q47.75-18.25 48.87-19.4 50-20.55 50-22.5ZM79.14-6.25L79.14-6.25Q79.14 0.75 70.69 0.75 62.24 0.75 62.24-6.25L62.24-6.25 62.24-10.5 65.74-10.5 65.74-6.05Q65.74-4.25 66.99-3.25 68.24-2.25 70.69-2.25 73.14-2.25 74.39-3.25 75.64-4.25 75.64-5.98 75.64-7.7 75.27-8.72 74.89-9.75 73.74-10.9L73.74-10.9 64.94-19.5Q63.39-21.05 62.82-22.53 62.24-24 62.24-26.25L62.24-26.25Q62.24-29.6 64.32-31.43 66.39-33.25 70.59-33.25L70.59-33.25Q78.64-33.25 78.64-26.25L78.64-26.25 78.64-22 75.14-22 75.14-26.45Q75.14-28.25 73.97-29.25 72.79-30.25 70.44-30.25 68.09-30.25 66.92-29.25 65.74-28.25 65.74-26.5 65.74-24.75 66.09-23.75 66.44-22.75 67.64-21.65L67.64-21.65 76.59-13.05Q78.04-11.45 78.59-9.98 79.14-8.5 79.14-6.25ZM115.14-26.25L115.14 0 113.64 0 112.34-3.2Q111.29-1.4 109.59-0.33 107.89 0.75 105.84 0.75L105.84 0.75Q98.64 0.75 98.64-6.25L98.64-6.25 98.64-11.25Q98.64-18.25 105.84-18.25L105.84-18.25 111.64-18.25 111.64-26.45Q111.64-28.25 110.49-29.25 109.34-30.25 107.09-30.25L107.09-30.25Q102.64-30.25 102.64-26.45L102.64-26.45 102.64-23.5 99.14-23.5 99.14-26.25Q99.14-29.6 101.11-31.43 103.09-33.25 107.09-33.25 111.09-33.25 113.11-31.43 115.14-29.6 115.14-26.25L115.14-26.25ZM111.64-7.1L111.64-15.25 105.84-15.25Q103.74-15.25 102.94-14.2 102.14-13.15 102.14-11.25L102.14-11.25 102.14-6.25Q102.14-4.35 102.94-3.3 103.74-2.25 105.84-2.25 107.94-2.25 109.74-3.88 111.54-5.5 111.64-7.1L111.64-7.1ZM128.14-25.25L128.14 0 124.64 0 124.64-32.5 126.14-32.5 127.39-29.25Q129.79-33.25 134.04-33.25L134.04-33.25Q141.39-33.25 141.39-26.25L141.39-26.25 141.39 0 137.89 0 137.89-26.25Q137.89-28.15 137.06-29.2 136.24-30.25 134.04-30.25 131.84-30.25 129.99-28.55 128.14-26.85 128.14-25.25L128.14-25.25ZM158.93 0L158.93 0 150.88 0 150.88-32.5 158.93-32.5Q162.83-32.5 164.86-30.65 166.88-28.8 166.88-25.5L166.88-25.5 166.88-7Q166.88-3.65 164.88-1.83 162.88 0 158.93 0ZM163.38-7L163.38-7 163.38-25.5Q163.38-27.4 162.23-28.45 161.08-29.5 158.93-29.5L158.93-29.5 154.38-29.5 154.38-3 158.93-3Q163.38-3 163.38-7ZM184.13-32.5L200.63-32.5 200.63-29.5 194.13-29.5 194.13 0 190.63 0 190.63-29.5 184.13-29.5 184.13-32.5ZM223.38-26.25L223.38-26.25 223.38-6.25Q223.38-2.9 221.25-1.07 219.13 0.75 214.9 0.75 210.68 0.75 208.53-1.07 206.38-2.9 206.38-6.25L206.38-6.25 206.38-26.25Q206.38-29.6 208.5-31.43 210.63-33.25 214.85-33.25 219.08-33.25 221.23-31.43 223.38-29.6 223.38-26.25ZM219.88-6.25L219.88-6.25 219.88-26.25Q219.88-30.25 214.88-30.25 209.88-30.25 209.88-26.25L209.88-26.25 209.88-6.25Q209.88-2.25 214.88-2.25 219.88-2.25 219.88-6.25ZM248.87-26.25L248.87-26.25 248.87-6.25Q248.87-2.9 246.75-1.07 244.62 0.75 240.4 0.75 236.17 0.75 234.02-1.07 231.87-2.9 231.87-6.25L231.87-6.25 231.87-26.25Q231.87-29.6 234-31.43 236.12-33.25 240.35-33.25 244.57-33.25 246.72-31.43 248.87-29.6 248.87-26.25ZM245.37-6.25L245.37-6.25 245.37-26.25Q245.37-30.25 240.37-30.25 235.37-30.25 235.37-26.25L235.37-26.25 235.37-6.25Q235.37-2.25 240.37-2.25 245.37-2.25 245.37-6.25ZM270.77 0L258.12 0 258.12-32.5 261.62-32.5 261.62-3 270.77-3 270.77 0ZM292.67-6.25L292.67-6.25Q292.67 0.75 284.22 0.75 275.77 0.75 275.77-6.25L275.77-6.25 275.77-10.5 279.27-10.5 279.27-6.05Q279.27-4.25 280.52-3.25 281.77-2.25 284.22-2.25 286.67-2.25 287.92-3.25 289.17-4.25 289.17-5.98 289.17-7.7 288.79-8.72 288.42-9.75 287.27-10.9L287.27-10.9 278.47-19.5Q276.92-21.05 276.34-22.53 275.77-24 275.77-26.25L275.77-26.25Q275.77-29.6 277.84-31.43 279.92-33.25 284.12-33.25L284.12-33.25Q292.17-33.25 292.17-26.25L292.17-26.25 292.17-22 288.67-22 288.67-26.45Q288.67-28.25 287.49-29.25 286.32-30.25 283.97-30.25 281.62-30.25 280.44-29.25 279.27-28.25 279.27-26.5 279.27-24.75 279.62-23.75 279.97-22.75 281.17-21.65L281.17-21.65 290.12-13.05Q291.57-11.45 292.12-9.98 292.67-8.5 292.67-6.25Z" opacity="1" transform="matrix(1,0,0,1,0,0)" fill="#ffffff" class="undefined-text-0" data-fill-palette-color="quaternary" id="text-0"></path></svg></g></svg></g></svg></g></svg></g><g transform="matrix(1,0,0,1,91.70192451616991,0)"><svg viewBox="0 0 29.754592194817285 34.395222652409544" height="34.395222652409544" width="29.754592194817285"><g><svg xmlns="http://www.w3.org/2000/svg" xmlns:xlink="http://www.w3.org/1999/xlink" version="1.1" x="0" y="0" viewBox="17.299999237060547 12.199999809265137 65.39999389648438 75.60000610351562" style="enable-background:new 0 0 100 100;" xml:space="preserve" height="34.395222652409544" width="29.754592194817285" class="icon-icon-0" data-fill-palette-color="quaternary" id="icon-0"><path d="M50 12.2L17.3 31.1v37.8L50 87.8l32.7-18.9V31.1L50 12.2zM32.1 37.4L50 16l17 21.4H32.1zM67.3 39.4L50 70.4l-18.2-31H67.3zM48.1 71l-27.7-4.5 9.8-25.9L48.1 71zM68.9 40.7l10.7 25.9-27.7 4.5L68.9 40.7zM69.2 37.1L52.6 16l27 15.6L69.2 37.1zM29.8 37.1l-9.4-5.5 26.8-15.5L29.8 37.1zM28.8 38.8l-9.5 25V33.3L28.8 38.8zM49 73.2v11.7L20.9 68.7 49 73.2zM51 73.2l28.1-4.5L51 84.9V73.2zM70.3 38.8l10.5-5.6v30.9L70.3 38.8z" fill="#ffffff" data-fill-palette-color="quaternary"></path></svg></g></svg></g><g></g></svg></g></svg></g></svg></g></svg></g><defs></defs></svg><rect width="342.85155851775386" height="342.85155851775386" fill="none" stroke="none" visibility="hidden"></rect></g></svg></g></svg>